name processed_emg_signals
nRows=76
nColumns=7
 
endheader
time	LGLTMED	LRF	LADDLONG	LBF	LTA	LGM
8.569999999999977	0.5457564818071526	0.6418599426526015	0.8581981322597234	0.4748711774475622	0.9362469861927256	0.5894794703095606
8.579999999999977	0.5439482226766884	0.6389012686432197	0.8565637170339866	0.4739803925225605	0.9390162138108508	0.589902509829769
8.589999999999977	0.5420760529991292	0.6358998033325226	0.8548088328036959	0.4730318764835237	0.9416762720016114	0.5902932298271526
8.599999999999977	0.5401445035300987	0.6328602505546315	0.8529354929395757	0.47202851919303	0.9442276032454734	0.5906547587573524
8.609999999999976	0.538158087673896	0.6297872382661096	0.8509457467570999	0.4709732076398989	0.9466706517232852	0.5909901404937944
8.619999999999976	0.5361212945578945	0.6266853152821009	0.8488416840979204	0.46986882043494	0.9490058671975136	0.591302328128581
8.629999999999976	0.5340385821622338	0.623558948184007	0.8466254397858167	0.4687182223826046	0.9512337091400586	0.5915941780406562
8.639999999999976	0.5319143705181584	0.6204125183988886	0.8442991979202081	0.4675242591460965	0.9533546510851816	0.591868444248616
8.649999999999975	0.5297530349890089	0.6172503194504616	0.8418651959767113	0.4662897520234998	0.955369185183348	0.5921277730646929
8.659999999999975	0.5275588996480169	0.6140765543803546	0.8393257286908498	0.465017492852189	0.9572778269290654	0.5923746980663346
8.669999999999975	0.5253362307670523	0.6108953333373648	0.8366831517075605	0.4637102390585275	0.9590811200333752	0.5926116354010518
8.679999999999975	0.5230892304303155	0.6077106713321144	0.8339398849839872	0.4623707088691289	0.9607796414092395	0.5928408794391044
8.689999999999975	0.520822030286938	0.6045264861547157	0.8310984159367089	0.4610015766992146	0.9623740062353144	0.5930645987871059
8.699999999999974	0.5185386854571099	0.6013465964542192	0.8281613023261768	0.4596054687325568	0.9638648730607908	0.5932848326738976
8.709999999999974	0.5162431686064819	0.598174719979407	0.8251311748720912	0.4581849587067075	0.9652529489113452	0.5935034877190841
8.719999999999974	0.5139393642039163	0.5950144719814497	0.8220107395940295	0.4567425639163157	0.966538994353608	0.5937223350937715
8.729999999999974	0.511631062977643	0.5918693637787505	0.8188027798727637	0.4552807414467191	0.9677238284735964	0.5939430080825748
8.739999999999974	0.509321956585204	0.5887428014843303	0.8155101582285508	0.4538018846491967	0.9688083337225416	0.5941670000551449
8.749999999999973	0.5070156325123678	0.5856380848959402	0.8121358178140881	0.4523083198686831	0.9697934605819144	0.5943956628542736
8.759999999999973	0.5047155692160823	0.5825584065492145	0.8086827836203477	0.4508023034339358	0.9706802319973488	0.5946302056061928
8.769999999999973	0.5024251315256305	0.5795068509340041	0.8051541633938064	0.4492860189195155	0.9714697475294806	0.5948716939571699
8.779999999999973	0.5001475663151698	0.5764863938732677	0.8015531482626718	0.4477615746880214	0.972163187168492	0.5951210497392946
8.789999999999973	0.4978859984593538	0.5734999020630739	0.7978830130689472	0.4462310017199253	0.9727618147600658	0.595379051066481
8.799999999999972	0.4956434270822466	0.5705501327715822	0.794147116402493	0.4446962517371309	0.9732669809942806	0.5956463328601527
8.809999999999972	0.493422722108035	0.5676397336936452	0.7903489003333171	0.4431591956249113	0.9736801259158846	0.5959233878021635
8.819999999999972	0.491226621120629	0.564771242956755	0.7864918898390615	0.4416216221554329	0.9740027809221524	0.5962105677108921
8.829999999999972	0.4890577265380766	0.5619470892725512	0.7825796919264095	0.4400852370144331	0.974236570223272	0.5965080853352924
8.839999999999971	0.4869185031067581	0.5591695922268026	0.778615994446817	0.4385516621311174	0.9743832117492708	0.5968160165610814
8.849999999999971	0.484811275719397	0.5564409626995725	0.7746045646084986	0.4370224353099409	0.9744445174970086	0.5971343030228132
8.859999999999971	0.4827382275598708	0.5537633034070844	0.7705492471879075	0.4354990101616459	0.9744223933176784	0.5974627551149624
8.86999999999997	0.4807013985765276	0.5511386095577965	0.76645396244453	0.433982756330082	0.974318838149664	0.5978010553938863
8.87999999999997	0.4787026842846808	0.5485687696175007	0.7623227037432487	0.4324749600101308	0.97413594270431	0.5981487623611279
8.88999999999997	0.4767438348979796	0.5460555661805782	0.7581595348889493	0.4309768247510336	0.9738758876144684	0.5985053146174317
8.89999999999997	0.4748264547878544	0.5436006769463657	0.7539685871783621	0.4294894725378162	0.9735409410573076	0.5988700353761707
8.90999999999997	0.4729520022698333	0.541205675799976	0.7497540561743341	0.4280139451423302	0.9731334558649828	0.599242137324228
8.91999999999997	0.471121789715294	0.5388720339966292	0.7455201982073228	0.4265512057339348	0.9726558661393524	0.5996207278180514
8.92999999999997	0.4693369839868339	0.5366011214480781	0.7412713266080941	0.425102140739091	0.972110683390721	0.6000048144013159
8.93999999999997	0.4675986071949995	0.5343942081090015	0.7370118076752273	0.423667561938104	0.9715004922243412	0.6003933106294725
8.949999999999969	0.4659075377734872	0.5322524654603825	0.7327460563811355	0.4222482087866525	0.970827945601759	0.6007850421844778
8.959999999999969	0.4642645118691367	0.5301769680856245	0.7284785318212075	0.4208447509489331	0.9700957597069256	0.6011787532611205
8.969999999999969	0.4626701250420269	0.5281686953343895	0.7242137324118535	0.4194577910286375	0.9693067084490896	0.6015731132043154
8.979999999999968	0.4611248342696913	0.5262285330683448	0.7199561908438409	0.4180878674834121	0.9684636176356504	0.6019667233747278
8.989999999999968	0.4596289602484116	0.524357275483057	0.7157104687979199	0.4167354577081917	0.967569358848453	0.6023581242184576
8.999999999999968	0.4581826899834088	0.5225556269999349	0.7114811514302736	0.4154009812726257	0.9666268430562156	0.6027458025148629
9.009999999999968	0.4567860796588367	0.5208242042217537	0.7072728416369074	0.4140848032979968	0.9656390139940736	0.6031281987754985
9.019999999999968	0.4554390577776063	0.5191635379447422	0.7030901541086305	0.4127872379587367	0.9646088413390131	0.6035037147665026
9.029999999999967	0.4541414285604663	0.517574075220017	0.6989377091919915	0.4115085520931588	0.9635393137081836	0.6038707211264616
9.039999999999967	0.4528928755931994	0.5160561814573945	0.6948201265753959	0.4102489689071238	0.9624334315057124	0.604227565051624
9.049999999999967	0.4516929657101874	0.5146101425659015	0.6907420188232832	0.4090086717532429	0.9612941996441516	0.6045725780201047
9.059999999999967	0.450541153101676	0.5132361671262707	0.6867079847838474	0.4077878079672642	0.960124620168342	0.6049040835264563
9.069999999999967	0.4494367836311987	0.5119343885914646	0.6827226028980996	0.4065864927424794	0.9589276848121092	0.6052204047975174
9.079999999999966	0.4483790993484158	0.5107048675108044	0.6787904244389649	0.4054048130228301	0.9577063675204496	0.6055198724599334
9.089999999999966	0.4473672431815407	0.5095475937731211	0.6749159667093307	0.4042428313959662	0.9564636169703415	0.6058008321288348
9.099999999999966	0.4464002637924171	0.5084624888641239	0.6711037062269564	0.4031005899679869	0.9552023491227508	0.6060616518857965
9.109999999999966	0.4454771205763132	0.5074494081334598	0.6673580719229681	0.4019781142021535	0.9539254398364037	0.6063007296126011
9.119999999999965	0.4445966887872074	0.5065081430670604	0.6636834383793925	0.4008754167039571	0.9526357175718018	0.6065165001458277
9.129999999999965	0.4437577647683396	0.5056384235603604	0.6600841191297376	0.3997925009352608	0.9513359562112704	0.60670744221593
9.139999999999965	0.4429590712667293	0.5048399201877396	0.656564360044854	0.3987293648408061	0.9500288680182964	0.6068720851335696
9.149999999999965	0.4421992628097318	0.5041122464627401	0.6531283328244274	0.3976860043705882	0.9487170967573152	0.6070090151857277
9.159999999999965	0.4414769311218829	0.503454961082666	0.6497801286126698	0.3966624168816063	0.9474032109940628	0.6071168817054106
9.169999999999964	0.4407906105614093	0.5028675701503007	0.646523751755177	0.3956586044018821	0.9460896975967992	0.6071944027827396
9.179999999999964	0.440138783558077	0.502349529364571	0.6433631137122638	0.3946745767390228	0.944778955460579	0.6072403705928868
9.189999999999964	0.4395198860364006	0.501900246171373	0.640302027142649	0.3937103544149292	0.9434732894792894	0.6072536563258103
9.199999999999964	0.4389323128105053	0.50151908186488	0.6373442001696834	0.3927659714077931	0.9421749047925632	0.6072332147112379
9.209999999999964	0.4383744229385144	0.5012053536291659	0.6344932308414931	0.3918414776826701	0.9408859013355412	0.607178088137787
9.219999999999963	0.4378445450257995	0.5009583365105209	0.6317526017961022	0.3909369414933012	0.9396082687188476	0.6070874103679859
9.229999999999963	0.4373409824675649	0.500777265313492	0.6291256751431998	0.3900524514402066	0.9383438814643256	0.6069604098523252
9.239999999999963	0.4368620186223439	0.5006613364178324	0.6266156875753933	0.3891881182732047	0.937094494620152	0.6067964126461485
9.249999999999963	0.436405921908214	0.5006097095184622	0.6242257457227377	0.3883440764293951	0.9358617397770732	0.6065948449329724
9.259999999999962	0.4359709508139901	0.5006215092938481	0.6219588217647771	0.3875204852998316	0.9346471215053432	0.6063552351572739
9.269999999999962	0.4355553588176444	0.5006958270097279	0.6198177493138961	0.3867175302202293	0.9334520142294888	0.6060772157688996
9.279999999999962	0.435157399204065	0.5008317220649171	0.6178052195829804	0.3859354231821282	0.9322776595551808	0.6057605245807544
9.289999999999962	0.4347753297739894	0.5010282234853132	0.6159237778495528	0.3851744032619225	0.9311251640593984	0.6054050057407528
9.299999999999962	0.4344074174353142	0.5012843313712698	0.6141758202276941	0.384434736765819	0.9299954975521194	0.6050106103186944
9.309999999999961	0.4340519426672877	0.5015990183027704	0.6125635907580224	0.3837167170900349	0.9288894918147502	0.6045773965091108
9.319999999999961	0.4337072038479591	0.5019712307058442	0.6110891788244587	0.3830206642971928	0.9278078398184492	0.6041055294520647
